# xmcd CD database file
#
# Track frame offsets:
#	150
#	25001
#	42313
#	62381
#	79519
#	99904
#	117806
#	140148
#	162875
#	180623
#	204276
#	220176
#
# Disc length: 3312 seconds
#
# Revision: 0
# Processed by: cddbd v1.4PL0 Copyright (c) Steve Scherf et al.
# Submitted via: CDex 1.40Beta5
#
DISCID=940cee0c
DTITLE=The Blue Band - The Blue Band
DYEAR=2000
DGENRE=Blues
TTITLE0=Every Day Blues
TTITLE1=Got To Move
TTITLE2=The Richest Man On Lonely Street
TTITLE3=Nothing Like Joining the Party
TTITLE4=Bottle In the Kitchen
TTITLE5=Whatever (are your taling about)
TTITLE6=My Little Baby
TTITLE7=Flashback
TTITLE8=Isn't It Sweet
TTITLE9=Dr. Jekyll and Mr. Hyde
TTITLE10=Baby Baby (Every Night)
TTITLE11=Don't Cry About It
EXTD=YEAR: 2000 ID3G:   0
EXTT0=
EXTT1=
EXTT2=
EXTT3=
EXTT4=
EXTT5=
EXTT6=
EXTT7=
EXTT8=
EXTT9=
EXTT10=
EXTT11=
PLAYORDER=
